<?xml version="1.0" encoding="UTF-8" standalone="no"?>
<!DOCTYPE svg PUBLIC "-//W3C//DTD SVG 1.1//EN"
 "http://www.w3.org/Graphics/SVG/1.1/DTD/svg11.dtd">
<!-- Generated by graphviz version 6.0.1 (0)
 -->
<!-- Pages: 1 -->
<svg width="1343pt" height="237pt"
 viewBox="0.00 0.00 1342.99 237.00" xmlns="http://www.w3.org/2000/svg" xmlns:xlink="http://www.w3.org/1999/xlink">
<g id="graph0" class="graph" transform="scale(1 1) rotate(0) translate(4 233)">
<polygon fill="white" stroke="none" points="-4,4 -4,-233 1338.99,-233 1338.99,4 -4,4"/>
<!-- 4424107536 -->
<g id="node1" class="node">
<title>4424107536</title>
<polygon fill="none" stroke="black" points="290.5,-27.5 290.5,-63.5 452.5,-63.5 452.5,-27.5 290.5,-27.5"/>
<text text-anchor="middle" x="330.5" y="-41.8" font-family="Times,serif" font-size="14.00">data 0.2355</text>
<polyline fill="none" stroke="black" points="370.5,-27.5 370.5,-63.5"/>
<text text-anchor="middle" x="411.5" y="-41.8" font-family="Times,serif" font-size="14.00">grad 1.0000</text>
</g>
<!-- 4424107872+ -->
<g id="node12" class="node">
<title>4424107872+</title>
<ellipse fill="none" stroke="black" cx="518" cy="-100.5" rx="27" ry="18"/>
<text text-anchor="middle" x="518" y="-96.8" font-family="Times,serif" font-size="14.00">+</text>
</g>
<!-- 4424107536&#45;&gt;4424107872+ -->
<g id="edge10" class="edge">
<title>4424107536&#45;&gt;4424107872+</title>
<path fill="none" stroke="black" d="M427.76,-63.54C436.9,-66.73 446.25,-70.12 455,-73.5 465.18,-77.44 476.15,-82.08 485.99,-86.39"/>
<polygon fill="black" stroke="black" points="484.82,-89.7 495.38,-90.55 487.66,-83.3 484.82,-89.7"/>
</g>
<!-- 4424107536* -->
<g id="node2" class="node">
<title>4424107536*</title>
<ellipse fill="none" stroke="black" cx="225" cy="-45.5" rx="27" ry="18"/>
<text text-anchor="middle" x="225" y="-41.8" font-family="Times,serif" font-size="14.00">*</text>
</g>
<!-- 4424107536*&#45;&gt;4424107536 -->
<g id="edge1" class="edge">
<title>4424107536*&#45;&gt;4424107536</title>
<path fill="none" stroke="black" d="M252.17,-45.5C260.4,-45.5 270.01,-45.5 280.12,-45.5"/>
<polygon fill="black" stroke="black" points="280.37,-49 290.37,-45.5 280.37,-42 280.37,-49"/>
</g>
<!-- 4423969808 -->
<g id="node3" class="node">
<title>4423969808</title>
<polygon fill="none" stroke="black" points="0,-55.5 0,-91.5 162,-91.5 162,-55.5 0,-55.5"/>
<text text-anchor="middle" x="40" y="-69.8" font-family="Times,serif" font-size="14.00">data 1.0000</text>
<polyline fill="none" stroke="black" points="80,-55.5 80,-91.5"/>
<text text-anchor="middle" x="121" y="-69.8" font-family="Times,serif" font-size="14.00">grad 0.2355</text>
</g>
<!-- 4423969808&#45;&gt;4424107536* -->
<g id="edge9" class="edge">
<title>4423969808&#45;&gt;4424107536*</title>
<path fill="none" stroke="black" d="M162.13,-57.7C171.51,-55.85 180.67,-54.04 188.94,-52.41"/>
<polygon fill="black" stroke="black" points="189.77,-55.82 198.9,-50.45 188.42,-48.95 189.77,-55.82"/>
</g>
<!-- 4424108592 -->
<g id="node4" class="node">
<title>4424108592</title>
<polygon fill="none" stroke="black" points="1172.99,-109.5 1172.99,-145.5 1334.99,-145.5 1334.99,-109.5 1172.99,-109.5"/>
<text text-anchor="middle" x="1212.99" y="-123.8" font-family="Times,serif" font-size="14.00">data 0.1024</text>
<polyline fill="none" stroke="black" points="1252.99,-109.5 1252.99,-145.5"/>
<text text-anchor="middle" x="1293.99" y="-123.8" font-family="Times,serif" font-size="14.00">grad 1.0000</text>
</g>
<!-- 4424108592ReLU -->
<g id="node5" class="node">
<title>4424108592ReLU</title>
<ellipse fill="none" stroke="black" cx="1104.5" cy="-127.5" rx="32.49" ry="18"/>
<text text-anchor="middle" x="1104.5" y="-123.8" font-family="Times,serif" font-size="14.00">ReLU</text>
</g>
<!-- 4424108592ReLU&#45;&gt;4424108592 -->
<g id="edge2" class="edge">
<title>4424108592ReLU&#45;&gt;4424108592</title>
<path fill="none" stroke="black" d="M1137.14,-127.5C1144.97,-127.5 1153.76,-127.5 1162.9,-127.5"/>
<polygon fill="black" stroke="black" points="1162.92,-131 1172.92,-127.5 1162.92,-124 1162.92,-131"/>
</g>
<!-- 4424108112 -->
<g id="node6" class="node">
<title>4424108112</title>
<polygon fill="none" stroke="black" points="581,-137.5 581,-173.5 748,-173.5 748,-137.5 581,-137.5"/>
<text text-anchor="middle" x="623.5" y="-151.8" font-family="Times,serif" font-size="14.00">data &#45;0.1331</text>
<polyline fill="none" stroke="black" points="666,-137.5 666,-173.5"/>
<text text-anchor="middle" x="707" y="-151.8" font-family="Times,serif" font-size="14.00">grad 1.0000</text>
</g>
<!-- 4424108448+ -->
<g id="node14" class="node">
<title>4424108448+</title>
<ellipse fill="none" stroke="black" cx="811" cy="-127.5" rx="27" ry="18"/>
<text text-anchor="middle" x="811" y="-123.8" font-family="Times,serif" font-size="14.00">+</text>
</g>
<!-- 4424108112&#45;&gt;4424108448+ -->
<g id="edge13" class="edge">
<title>4424108112&#45;&gt;4424108448+</title>
<path fill="none" stroke="black" d="M748.3,-139.46C757.61,-137.65 766.68,-135.89 774.88,-134.31"/>
<polygon fill="black" stroke="black" points="775.59,-137.73 784.75,-132.39 774.26,-130.86 775.59,-137.73"/>
</g>
<!-- 4424108112* -->
<g id="node7" class="node">
<title>4424108112*</title>
<ellipse fill="none" stroke="black" cx="518" cy="-155.5" rx="27" ry="18"/>
<text text-anchor="middle" x="518" y="-151.8" font-family="Times,serif" font-size="14.00">*</text>
</g>
<!-- 4424108112*&#45;&gt;4424108112 -->
<g id="edge3" class="edge">
<title>4424108112*&#45;&gt;4424108112</title>
<path fill="none" stroke="black" d="M545.17,-155.5C552.75,-155.5 561.5,-155.5 570.74,-155.5"/>
<polygon fill="black" stroke="black" points="570.92,-159 580.92,-155.5 570.92,-152 570.92,-159"/>
</g>
<!-- 4424117360 -->
<g id="node8" class="node">
<title>4424117360</title>
<polygon fill="none" stroke="black" points="0,-0.5 0,-36.5 162,-36.5 162,-0.5 0,-0.5"/>
<text text-anchor="middle" x="40" y="-14.8" font-family="Times,serif" font-size="14.00">data 0.2355</text>
<polyline fill="none" stroke="black" points="80,-0.5 80,-36.5"/>
<text text-anchor="middle" x="121" y="-14.8" font-family="Times,serif" font-size="14.00">grad 1.0000</text>
</g>
<!-- 4424117360&#45;&gt;4424107536* -->
<g id="edge7" class="edge">
<title>4424117360&#45;&gt;4424107536*</title>
<path fill="none" stroke="black" d="M162.13,-33.74C171.51,-35.52 180.67,-37.26 188.94,-38.83"/>
<polygon fill="black" stroke="black" points="188.43,-42.3 198.9,-40.73 189.73,-35.42 188.43,-42.3"/>
</g>
<!-- 4424107296 -->
<g id="node9" class="node">
<title>4424107296</title>
<polygon fill="none" stroke="black" points="290.5,-82.5 290.5,-118.5 452.5,-118.5 452.5,-82.5 290.5,-82.5"/>
<text text-anchor="middle" x="330.5" y="-96.8" font-family="Times,serif" font-size="14.00">data 0.0000</text>
<polyline fill="none" stroke="black" points="370.5,-82.5 370.5,-118.5"/>
<text text-anchor="middle" x="411.5" y="-96.8" font-family="Times,serif" font-size="14.00">grad 1.0000</text>
</g>
<!-- 4424107296&#45;&gt;4424107872+ -->
<g id="edge12" class="edge">
<title>4424107296&#45;&gt;4424107872+</title>
<path fill="none" stroke="black" d="M452.78,-100.5C462.57,-100.5 472.16,-100.5 480.82,-100.5"/>
<polygon fill="black" stroke="black" points="480.88,-104 490.88,-100.5 480.88,-97 480.88,-104"/>
</g>
<!-- 4424115536 -->
<g id="node10" class="node">
<title>4424115536</title>
<polygon fill="none" stroke="black" points="288.5,-192.5 288.5,-228.5 454.5,-228.5 454.5,-192.5 288.5,-192.5"/>
<text text-anchor="middle" x="328.5" y="-206.8" font-family="Times,serif" font-size="14.00">data 0.0665</text>
<polyline fill="none" stroke="black" points="368.5,-192.5 368.5,-228.5"/>
<text text-anchor="middle" x="411.5" y="-206.8" font-family="Times,serif" font-size="14.00">grad &#45;2.0000</text>
</g>
<!-- 4424115536&#45;&gt;4424108112* -->
<g id="edge6" class="edge">
<title>4424115536&#45;&gt;4424108112*</title>
<path fill="none" stroke="black" d="M430.48,-192.4C438.76,-189.56 447.13,-186.55 455,-183.5 465.43,-179.45 476.63,-174.57 486.6,-170.02"/>
<polygon fill="black" stroke="black" points="488.12,-173.17 495.72,-165.8 485.18,-166.82 488.12,-173.17"/>
</g>
<!-- 4424107872 -->
<g id="node11" class="node">
<title>4424107872</title>
<polygon fill="none" stroke="black" points="583.5,-82.5 583.5,-118.5 745.5,-118.5 745.5,-82.5 583.5,-82.5"/>
<text text-anchor="middle" x="623.5" y="-96.8" font-family="Times,serif" font-size="14.00">data 0.2355</text>
<polyline fill="none" stroke="black" points="663.5,-82.5 663.5,-118.5"/>
<text text-anchor="middle" x="704.5" y="-96.8" font-family="Times,serif" font-size="14.00">grad 1.0000</text>
</g>
<!-- 4424107872&#45;&gt;4424108448+ -->
<g id="edge8" class="edge">
<title>4424107872&#45;&gt;4424108448+</title>
<path fill="none" stroke="black" d="M745.78,-115.5C755.96,-117.4 765.92,-119.26 774.85,-120.93"/>
<polygon fill="black" stroke="black" points="774.33,-124.4 784.8,-122.79 775.61,-117.51 774.33,-124.4"/>
</g>
<!-- 4424107872+&#45;&gt;4424107872 -->
<g id="edge4" class="edge">
<title>4424107872+&#45;&gt;4424107872</title>
<path fill="none" stroke="black" d="M545.17,-100.5C553.4,-100.5 563.01,-100.5 573.12,-100.5"/>
<polygon fill="black" stroke="black" points="573.37,-104 583.37,-100.5 573.37,-97 573.37,-104"/>
</g>
<!-- 4424108448 -->
<g id="node13" class="node">
<title>4424108448</title>
<polygon fill="none" stroke="black" points="874,-109.5 874,-145.5 1036,-145.5 1036,-109.5 874,-109.5"/>
<text text-anchor="middle" x="914" y="-123.8" font-family="Times,serif" font-size="14.00">data 0.1024</text>
<polyline fill="none" stroke="black" points="954,-109.5 954,-145.5"/>
<text text-anchor="middle" x="995" y="-123.8" font-family="Times,serif" font-size="14.00">grad 1.0000</text>
</g>
<!-- 4424108448&#45;&gt;4424108592ReLU -->
<g id="edge14" class="edge">
<title>4424108448&#45;&gt;4424108592ReLU</title>
<path fill="none" stroke="black" d="M1036.22,-127.5C1044.96,-127.5 1053.58,-127.5 1061.58,-127.5"/>
<polygon fill="black" stroke="black" points="1061.69,-131 1071.69,-127.5 1061.69,-124 1061.69,-131"/>
</g>
<!-- 4424108448+&#45;&gt;4424108448 -->
<g id="edge5" class="edge">
<title>4424108448+&#45;&gt;4424108448</title>
<path fill="none" stroke="black" d="M838.04,-127.5C845.63,-127.5 854.38,-127.5 863.6,-127.5"/>
<polygon fill="black" stroke="black" points="863.76,-131 873.76,-127.5 863.76,-124 863.76,-131"/>
</g>
<!-- 4424116160 -->
<g id="node15" class="node">
<title>4424116160</title>
<polygon fill="none" stroke="black" points="288,-137.5 288,-173.5 455,-173.5 455,-137.5 288,-137.5"/>
<text text-anchor="middle" x="330.5" y="-151.8" font-family="Times,serif" font-size="14.00">data &#45;2.0000</text>
<polyline fill="none" stroke="black" points="373,-137.5 373,-173.5"/>
<text text-anchor="middle" x="414" y="-151.8" font-family="Times,serif" font-size="14.00">grad 0.0665</text>
</g>
<!-- 4424116160&#45;&gt;4424108112* -->
<g id="edge11" class="edge">
<title>4424116160&#45;&gt;4424108112*</title>
<path fill="none" stroke="black" d="M455.3,-155.5C464.14,-155.5 472.77,-155.5 480.64,-155.5"/>
<polygon fill="black" stroke="black" points="480.85,-159 490.85,-155.5 480.85,-152 480.85,-159"/>
</g>
</g>
</svg>
